<svg xmlns="http://www.w3.org/2000/svg" viewBox="0 0 16 16"><path fill="currentColor" fill-rule="evenodd" d="M13.60 6.13 L15.51 6.81 L15.51 9.19 L13.60 9.87 L13.28 10.63 L14.15 12.47 L12.47 14.15 L10.63 13.28 L9.87 13.60 L9.19 15.51 L6.81 15.51 L6.13 13.60 L5.37 13.28 L3.53 14.15 L1.85 12.47 L2.72 10.63 L2.40 9.87 L0.49 9.19 L0.49 6.81 L2.40 6.13 L2.72 5.37 L1.85 3.53 L3.53 1.85 L5.37 2.72 L6.13 2.40 L6.81 0.49 L9.19 0.49 L9.87 2.40 L10.63 2.72 L12.47 1.85 L14.15 3.53 L13.28 5.37z M8 5.6a2.4 2.4 0 1 0 0 4.8a2.4 2.4 0 1 0 0-4.8z"/></svg>
